<?xml version="1.0" encoding="iso-8859-1"?>
<!-- Generator: Adobe Illustrator 19.0.0, SVG Export Plug-In . SVG Version: 6.00 Build 0)  -->
<svg version="1.1" id="Capa_1" xmlns="http://www.w3.org/2000/svg" xmlns:xlink="http://www.w3.org/1999/xlink" x="0px" y="0px"
	 viewBox="0 0 480.005 480.005" style="enable-background:new 0 0 480.005 480.005;" xml:space="preserve">
<g>
	<path style="fill:#FDB62F;" d="M152.003,176h176v128h-176V176z"/>
	<path style="fill:#FDB62F;" d="M152.003,200v80h-48c-8.837,0-16,7.163-16,16v48h-80v-48c0-53.019,42.981-96,96-96H152.003z"/>
	<path style="fill:#FDB62F;" d="M192.003,128h96v48h-96V128z"/>
	<path style="fill:#FDB62F;" d="M328.003,192h88v96h-88V192z"/>
	<path style="fill:#FDB62F;" d="M416.003,160h56v160h-56V160z"/>
	<path style="fill:#FDB62F;" d="M224.003,8h32v120h-32V8z"/>
</g>
<path style="fill:#4398D1;" d="M48.003,376l-28.584,53.064c-7.272,14.779-1.187,32.655,13.592,39.927
	c4.651,2.289,9.818,3.326,14.992,3.009c16.44,1.008,30.585-11.503,31.593-27.944c0.317-5.174-0.72-10.341-3.009-14.992L48.003,376z"
	/>
<path style="fill:#FDB62F;" d="M336.627,73.728L288.003,64h-96l-48.624,9.728c-14.212,2.837-28.032-6.385-30.868-20.596
	c-0.337-1.69-0.507-3.409-0.508-5.132c0.002-14.492,11.753-26.238,26.244-26.236c1.723,0,3.442,0.17,5.132,0.508L192.003,32h96
	l48.624-9.728c14.212-2.837,28.032,6.385,30.868,20.596c0.337,1.69,0.507,3.409,0.508,5.132
	C368,62.492,356.25,74.238,341.758,74.236C340.035,74.235,338.316,74.065,336.627,73.728z"/>
<g>
	<path style="fill:#F7962E;" d="M113.707,200C95.282,253.674,57.623,298.617,8.003,326.152V344h80v-48c0-8.837,7.163-16,16-16h48
		v-80H113.707z"/>
	<path style="fill:#F7962E;" d="M256.003,128h32v48h-32V128z"/>
	<path style="fill:#F7962E;" d="M152.003,282.024V304h176v-72C328.003,232,264.003,272,152.003,282.024z"/>
	<path style="fill:#F7962E;" d="M224.003,64h32v24h-32V64z"/>
	<path style="fill:#F7962E;" d="M416.003,240h56v80h-56V240z"/>
</g>
<path style="fill:#3E8CC7;" d="M69.459,415.832c-10.031,19.97-28.889,34.043-50.888,37.976c5.38,11.324,16.898,18.443,29.432,18.192
	c16.44,1.008,30.585-11.503,31.593-27.944c0.317-5.174-0.72-10.341-3.009-14.992L69.459,415.832z"/>
<path d="M472.003,152h-56c-4.418,0-8,3.582-8,8v24h-72v-8c0-4.418-3.582-8-8-8h-32v-40c0-4.418-3.582-8-8-8h-24V72h23.2l47.848,9.6
	c18.539,3.706,36.572-8.319,40.278-26.858s-8.319-36.572-26.858-40.278c-4.429-0.885-8.99-0.885-13.419,0L287.203,24h-23.2V8
	c0-4.418-3.582-8-8-8h-32c-4.418,0-8,3.582-8,8v16h-23.2l-47.856-9.6c-18.539-3.728-36.59,8.279-40.318,26.818
	c-3.728,18.539,8.279,36.59,26.818,40.318c2.217,0.446,4.472,0.671,6.733,0.672c2.273-0.001,4.54-0.226,6.768-0.672L192.803,72h23.2
	v48h-24c-4.418,0-8,3.582-8,8v40h-32c-4.418,0-8,3.582-8,8v16h-40c-57.41,0.066-103.934,46.59-104,104v48c0,4.418,3.582,8,8,8h80
	c4.418,0,8-3.582,8-8v-48c0-4.418,3.582-8,8-8h40v16c0,4.418,3.582,8,8,8h176c4.418,0,8-3.582,8-8v-8h72v24c0,4.418,3.582,8,8,8h56
	c4.418,0,8-3.582,8-8V160C480.003,155.582,476.421,152,472.003,152z M288.003,40c0.538,0.005,1.074-0.049,1.6-0.16l48.624-9.72
	c9.875-1.969,19.476,4.44,21.445,14.315s-4.44,19.476-14.315,21.445c-2.354,0.469-4.777,0.469-7.131,0l-48.624-9.72
	c-0.526-0.111-1.062-0.165-1.6-0.16h-24V40L288.003,40z M248.003,56h-16V40h16V56z M232.003,16h16v8h-16V16z M192.003,56
	c-0.538-0.005-1.074,0.049-1.6,0.16l-48.624,9.72c-9.875,1.969-19.476-4.44-21.445-14.315s4.44-19.476,14.315-21.445
	c2.354-0.469,4.777-0.469,7.131,0l48.624,9.72c0.526,0.111,1.062,0.165,1.6,0.16h24v16L192.003,56z M232.003,72h16v48h-16V72z
	 M200.003,136h80v32h-80V136z M104.003,272c-13.255,0-24,10.745-24,24v40h-64v-40c0.057-48.577,39.423-87.943,88-88h40v64H104.003z
	 M320.003,296h-160V184h160V296z M336.003,280v-80h72v80H336.003z M464.003,312h-40V168h40V312z"/>
<path d="M48.003,480c14.195,0.235,27.451-7.072,34.832-19.2c6.563-10.858,6.868-24.385,0.8-35.528l-28.584-53.064
	c-2.458-3.893-7.607-5.055-11.499-2.597c-1.048,0.662-1.935,1.549-2.597,2.597l-28.584,53.064c-6.068,11.143-5.763,24.67,0.8,35.528
	C20.551,472.928,33.807,480.235,48.003,480z M26.467,432.856l21.536-40l21.536,40c3.426,6.175,3.261,13.717-0.432,19.736
	C64.594,459.869,56.563,464.21,48.003,464c-8.56,0.21-16.591-4.131-21.104-11.408C23.205,446.573,23.04,439.031,26.467,432.856z"/>
<g>
</g>
<g>
</g>
<g>
</g>
<g>
</g>
<g>
</g>
<g>
</g>
<g>
</g>
<g>
</g>
<g>
</g>
<g>
</g>
<g>
</g>
<g>
</g>
<g>
</g>
<g>
</g>
<g>
</g>
</svg>
