<svg xmlns="http://www.w3.org/2000/svg" version="1.1" xmlns:xlink="http://www.w3.org/1999/xlink" xmlns:svgjs="http://svgjs.com/svgjs" width="512" height="512" x="0" y="0" viewBox="0 0 512 512" style="enable-background:new 0 0 512 512" xml:space="preserve" class=""><g><path d="M0 315.03C0 168.676 118.643 50.034 264.996 50.034H320V15.029c0-12.987 15.382-19.837 25.034-11.149l100 90c6.621 5.959 6.621 16.34 0 22.299l-100 90C335.382 214.867 320 208.016 320 195.03v-34.996h-51.157c-105.164 0-199.931 63.465-239.973 160.707C22.614 335.934 0 331.461 0 315.03zM512 196.97c0 146.353-118.643 264.996-264.996 264.996H192v35.004c0 12.987-15.382 19.837-25.034 11.149l-100-90c-6.621-5.959-6.621-16.34 0-22.299l100-90c9.653-8.688 25.034-1.837 25.034 11.149v34.996h51.157c105.164 0 199.931-63.465 239.973-160.707 6.256-15.192 28.87-10.719 28.87 5.712z" fill="#fecd35" data-original="#000000" class=""></path></g></svg>